<mxfile host="app.diagrams.net" modified="2021-02-21T13:37:28.719Z" agent="5.0 (Windows NT 10.0; Win64; x64) AppleWebKit/537.36 (KHTML, like Gecko) Chrome/88.0.4324.182 Safari/537.36" etag="DMD9CtBgbp59yy-eauWu" version="14.1.9" type="github">
  <diagram id="XwT_-fUCf9YLQGCaag0Y" name="Page-1">
    <mxGraphModel dx="1422" dy="762" grid="0" gridSize="10" guides="1" tooltips="1" connect="1" arrows="1" fold="1" page="1" pageScale="1" pageWidth="2339" pageHeight="3300" math="0" shadow="0">
      <root>
        <mxCell id="0" />
        <mxCell id="1" parent="0" />
        <mxCell id="hjiipsqCvdRGYFD8bcew-3" value="系统管理员" style="shape=umlActor;verticalLabelPosition=bottom;verticalAlign=top;html=1;outlineConnect=0;" vertex="1" parent="1">
          <mxGeometry x="446" y="226" width="30" height="59" as="geometry" />
        </mxCell>
        <mxCell id="hjiipsqCvdRGYFD8bcew-4" value="数据字典管理" style="rounded=0;whiteSpace=wrap;html=1;" vertex="1" parent="1">
          <mxGeometry x="579" y="166" width="120" height="60" as="geometry" />
        </mxCell>
        <mxCell id="hjiipsqCvdRGYFD8bcew-5" value="参数管理" style="rounded=0;whiteSpace=wrap;html=1;" vertex="1" parent="1">
          <mxGeometry x="579" y="253" width="120" height="60" as="geometry" />
        </mxCell>
        <mxCell id="hjiipsqCvdRGYFD8bcew-6" value="充值提现审核" style="rounded=0;whiteSpace=wrap;html=1;" vertex="1" parent="1">
          <mxGeometry x="579" y="346" width="120" height="60" as="geometry" />
        </mxCell>
        <mxCell id="hjiipsqCvdRGYFD8bcew-7" value="" style="endArrow=classic;html=1;" edge="1" parent="1">
          <mxGeometry width="50" height="50" relative="1" as="geometry">
            <mxPoint x="488" y="239" as="sourcePoint" />
            <mxPoint x="569" y="198" as="targetPoint" />
          </mxGeometry>
        </mxCell>
        <mxCell id="hjiipsqCvdRGYFD8bcew-8" value="" style="endArrow=classic;html=1;" edge="1" parent="1">
          <mxGeometry width="50" height="50" relative="1" as="geometry">
            <mxPoint x="491" y="280" as="sourcePoint" />
            <mxPoint x="569" y="280" as="targetPoint" />
          </mxGeometry>
        </mxCell>
        <mxCell id="hjiipsqCvdRGYFD8bcew-9" value="" style="endArrow=classic;html=1;" edge="1" parent="1">
          <mxGeometry width="50" height="50" relative="1" as="geometry">
            <mxPoint x="483" y="318" as="sourcePoint" />
            <mxPoint x="570" y="372" as="targetPoint" />
          </mxGeometry>
        </mxCell>
        <mxCell id="hjiipsqCvdRGYFD8bcew-12" value="品牌商" style="shape=umlActor;verticalLabelPosition=bottom;verticalAlign=top;html=1;outlineConnect=0;" vertex="1" parent="1">
          <mxGeometry x="436" y="616" width="30" height="60" as="geometry" />
        </mxCell>
        <mxCell id="hjiipsqCvdRGYFD8bcew-16" value="商品录入" style="rounded=0;whiteSpace=wrap;html=1;" vertex="1" parent="1">
          <mxGeometry x="579" y="500" width="120" height="60" as="geometry" />
        </mxCell>
        <mxCell id="hjiipsqCvdRGYFD8bcew-17" value="订单管理" style="rounded=0;whiteSpace=wrap;html=1;" vertex="1" parent="1">
          <mxGeometry x="579" y="592" width="120" height="60" as="geometry" />
        </mxCell>
        <mxCell id="hjiipsqCvdRGYFD8bcew-18" value="商品主图" style="rounded=0;whiteSpace=wrap;html=1;" vertex="1" parent="1">
          <mxGeometry x="581" y="696" width="120" height="60" as="geometry" />
        </mxCell>
        <mxCell id="hjiipsqCvdRGYFD8bcew-19" value="钱包" style="rounded=0;whiteSpace=wrap;html=1;" vertex="1" parent="1">
          <mxGeometry x="579" y="791" width="120" height="60" as="geometry" />
        </mxCell>
        <mxCell id="hjiipsqCvdRGYFD8bcew-20" value="" style="endArrow=classic;html=1;" edge="1" parent="1">
          <mxGeometry width="50" height="50" relative="1" as="geometry">
            <mxPoint x="476" y="636" as="sourcePoint" />
            <mxPoint x="569" y="530" as="targetPoint" />
          </mxGeometry>
        </mxCell>
        <mxCell id="hjiipsqCvdRGYFD8bcew-21" value="" style="endArrow=classic;html=1;" edge="1" parent="1">
          <mxGeometry width="50" height="50" relative="1" as="geometry">
            <mxPoint x="475" y="650" as="sourcePoint" />
            <mxPoint x="569" y="615" as="targetPoint" />
          </mxGeometry>
        </mxCell>
        <mxCell id="hjiipsqCvdRGYFD8bcew-22" value="" style="endArrow=classic;html=1;" edge="1" parent="1">
          <mxGeometry width="50" height="50" relative="1" as="geometry">
            <mxPoint x="475" y="663" as="sourcePoint" />
            <mxPoint x="562" y="712" as="targetPoint" />
          </mxGeometry>
        </mxCell>
        <mxCell id="hjiipsqCvdRGYFD8bcew-23" value="" style="endArrow=classic;html=1;" edge="1" parent="1">
          <mxGeometry width="50" height="50" relative="1" as="geometry">
            <mxPoint x="475" y="697" as="sourcePoint" />
            <mxPoint x="567" y="785" as="targetPoint" />
          </mxGeometry>
        </mxCell>
        <mxCell id="hjiipsqCvdRGYFD8bcew-24" value="借卖商" style="shape=umlActor;verticalLabelPosition=bottom;verticalAlign=top;html=1;outlineConnect=0;" vertex="1" parent="1">
          <mxGeometry x="419" y="1113" width="30" height="60" as="geometry" />
        </mxCell>
        <mxCell id="hjiipsqCvdRGYFD8bcew-25" value="店铺管理" style="rounded=0;whiteSpace=wrap;html=1;" vertex="1" parent="1">
          <mxGeometry x="579" y="935" width="120" height="60" as="geometry" />
        </mxCell>
        <mxCell id="hjiipsqCvdRGYFD8bcew-26" value="商品浏览" style="rounded=0;whiteSpace=wrap;html=1;" vertex="1" parent="1">
          <mxGeometry x="579" y="1038" width="120" height="60" as="geometry" />
        </mxCell>
        <mxCell id="hjiipsqCvdRGYFD8bcew-27" value="心愿单" style="rounded=0;whiteSpace=wrap;html=1;" vertex="1" parent="1">
          <mxGeometry x="579" y="1135" width="120" height="60" as="geometry" />
        </mxCell>
        <mxCell id="hjiipsqCvdRGYFD8bcew-28" value="订单管理" style="rounded=0;whiteSpace=wrap;html=1;" vertex="1" parent="1">
          <mxGeometry x="581" y="1229" width="120" height="60" as="geometry" />
        </mxCell>
        <mxCell id="hjiipsqCvdRGYFD8bcew-29" value="我的钱包" style="rounded=0;whiteSpace=wrap;html=1;" vertex="1" parent="1">
          <mxGeometry x="579" y="1336" width="120" height="60" as="geometry" />
        </mxCell>
        <mxCell id="hjiipsqCvdRGYFD8bcew-30" value="" style="endArrow=classic;html=1;" edge="1" parent="1">
          <mxGeometry width="50" height="50" relative="1" as="geometry">
            <mxPoint x="463" y="1103" as="sourcePoint" />
            <mxPoint x="567" y="970" as="targetPoint" />
          </mxGeometry>
        </mxCell>
        <mxCell id="hjiipsqCvdRGYFD8bcew-31" value="" style="endArrow=classic;html=1;" edge="1" parent="1">
          <mxGeometry width="50" height="50" relative="1" as="geometry">
            <mxPoint x="460" y="1130" as="sourcePoint" />
            <mxPoint x="568" y="1078" as="targetPoint" />
          </mxGeometry>
        </mxCell>
        <mxCell id="hjiipsqCvdRGYFD8bcew-32" value="" style="endArrow=classic;html=1;" edge="1" parent="1">
          <mxGeometry width="50" height="50" relative="1" as="geometry">
            <mxPoint x="460" y="1149" as="sourcePoint" />
            <mxPoint x="574" y="1149" as="targetPoint" />
          </mxGeometry>
        </mxCell>
        <mxCell id="hjiipsqCvdRGYFD8bcew-33" value="" style="endArrow=classic;html=1;" edge="1" parent="1">
          <mxGeometry width="50" height="50" relative="1" as="geometry">
            <mxPoint x="457" y="1171" as="sourcePoint" />
            <mxPoint x="570" y="1244" as="targetPoint" />
          </mxGeometry>
        </mxCell>
        <mxCell id="hjiipsqCvdRGYFD8bcew-34" value="" style="endArrow=classic;html=1;" edge="1" parent="1">
          <mxGeometry width="50" height="50" relative="1" as="geometry">
            <mxPoint x="456" y="1196" as="sourcePoint" />
            <mxPoint x="573" y="1346" as="targetPoint" />
          </mxGeometry>
        </mxCell>
        <mxCell id="hjiipsqCvdRGYFD8bcew-35" value="借卖商" style="rounded=0;whiteSpace=wrap;html=1;" vertex="1" parent="1">
          <mxGeometry x="361" y="2215" width="120" height="60" as="geometry" />
        </mxCell>
        <mxCell id="hjiipsqCvdRGYFD8bcew-36" value="商品" style="rounded=0;whiteSpace=wrap;html=1;" vertex="1" parent="1">
          <mxGeometry x="900" y="2215" width="120" height="60" as="geometry" />
        </mxCell>
        <mxCell id="hjiipsqCvdRGYFD8bcew-37" value="订单" style="rhombus;whiteSpace=wrap;html=1;" vertex="1" parent="1">
          <mxGeometry x="615" y="2198.5" width="152" height="93" as="geometry" />
        </mxCell>
        <mxCell id="hjiipsqCvdRGYFD8bcew-38" value="密码" style="ellipse;whiteSpace=wrap;html=1;" vertex="1" parent="1">
          <mxGeometry x="195" y="2117" width="81" height="55" as="geometry" />
        </mxCell>
        <mxCell id="hjiipsqCvdRGYFD8bcew-39" value="钱包" style="ellipse;whiteSpace=wrap;html=1;" vertex="1" parent="1">
          <mxGeometry x="172" y="2198.5" width="85" height="54" as="geometry" />
        </mxCell>
        <mxCell id="hjiipsqCvdRGYFD8bcew-40" value="电话" style="ellipse;whiteSpace=wrap;html=1;" vertex="1" parent="1">
          <mxGeometry x="194" y="2282" width="82" height="55" as="geometry" />
        </mxCell>
        <mxCell id="hjiipsqCvdRGYFD8bcew-41" value="邮箱" style="ellipse;whiteSpace=wrap;html=1;" vertex="1" parent="1">
          <mxGeometry x="306" y="2315" width="85" height="55" as="geometry" />
        </mxCell>
        <mxCell id="hjiipsqCvdRGYFD8bcew-42" value="名称" style="ellipse;whiteSpace=wrap;html=1;" vertex="1" parent="1">
          <mxGeometry x="299" y="2098" width="99" height="58" as="geometry" />
        </mxCell>
        <mxCell id="hjiipsqCvdRGYFD8bcew-43" value="订单数量" style="ellipse;whiteSpace=wrap;html=1;" vertex="1" parent="1">
          <mxGeometry x="648.5" y="2069" width="92" height="62" as="geometry" />
        </mxCell>
        <mxCell id="hjiipsqCvdRGYFD8bcew-44" value="订单日期" style="ellipse;whiteSpace=wrap;html=1;" vertex="1" parent="1">
          <mxGeometry x="766" y="2114" width="118" height="56.5" as="geometry" />
        </mxCell>
        <mxCell id="hjiipsqCvdRGYFD8bcew-45" value="订单价格" style="ellipse;whiteSpace=wrap;html=1;" vertex="1" parent="1">
          <mxGeometry x="641.5" y="2341" width="99" height="54" as="geometry" />
        </mxCell>
        <mxCell id="hjiipsqCvdRGYFD8bcew-46" value="订单商品数量" style="ellipse;whiteSpace=wrap;html=1;" vertex="1" parent="1">
          <mxGeometry x="771" y="2307" width="113" height="56" as="geometry" />
        </mxCell>
        <mxCell id="hjiipsqCvdRGYFD8bcew-47" value="总的价格" style="ellipse;whiteSpace=wrap;html=1;" vertex="1" parent="1">
          <mxGeometry x="506" y="2307" width="111" height="55" as="geometry" />
        </mxCell>
        <mxCell id="hjiipsqCvdRGYFD8bcew-48" value="订单状态" style="ellipse;whiteSpace=wrap;html=1;" vertex="1" parent="1">
          <mxGeometry x="502.25" y="2117" width="118.5" height="50.5" as="geometry" />
        </mxCell>
        <mxCell id="hjiipsqCvdRGYFD8bcew-49" value="商品名称" style="ellipse;whiteSpace=wrap;html=1;" vertex="1" parent="1">
          <mxGeometry x="967" y="2079" width="87" height="64" as="geometry" />
        </mxCell>
        <mxCell id="hjiipsqCvdRGYFD8bcew-50" value="商品价格" style="ellipse;whiteSpace=wrap;html=1;" vertex="1" parent="1">
          <mxGeometry x="1097" y="2136" width="82" height="57" as="geometry" />
        </mxCell>
        <mxCell id="hjiipsqCvdRGYFD8bcew-51" value="商品类别" style="ellipse;whiteSpace=wrap;html=1;" vertex="1" parent="1">
          <mxGeometry x="1100" y="2267" width="89" height="65" as="geometry" />
        </mxCell>
        <mxCell id="hjiipsqCvdRGYFD8bcew-52" value="商品所属品牌商" style="ellipse;whiteSpace=wrap;html=1;" vertex="1" parent="1">
          <mxGeometry x="975" y="2363" width="86" height="63" as="geometry" />
        </mxCell>
        <mxCell id="hjiipsqCvdRGYFD8bcew-55" value="" style="endArrow=none;html=1;entryX=0;entryY=0.5;entryDx=0;entryDy=0;" edge="1" parent="1" target="hjiipsqCvdRGYFD8bcew-37">
          <mxGeometry width="50" height="50" relative="1" as="geometry">
            <mxPoint x="483" y="2245" as="sourcePoint" />
            <mxPoint x="516" y="2212" as="targetPoint" />
          </mxGeometry>
        </mxCell>
        <mxCell id="hjiipsqCvdRGYFD8bcew-56" value="" style="endArrow=none;html=1;exitX=1;exitY=0.5;exitDx=0;exitDy=0;" edge="1" parent="1" source="hjiipsqCvdRGYFD8bcew-37">
          <mxGeometry width="50" height="50" relative="1" as="geometry">
            <mxPoint x="859" y="2245" as="sourcePoint" />
            <mxPoint x="899" y="2245" as="targetPoint" />
          </mxGeometry>
        </mxCell>
        <mxCell id="hjiipsqCvdRGYFD8bcew-57" value="" style="endArrow=none;html=1;entryX=0.263;entryY=0.938;entryDx=0;entryDy=0;entryPerimeter=0;" edge="1" parent="1" target="hjiipsqCvdRGYFD8bcew-44">
          <mxGeometry width="50" height="50" relative="1" as="geometry">
            <mxPoint x="734" y="2222" as="sourcePoint" />
            <mxPoint x="784" y="2172" as="targetPoint" />
          </mxGeometry>
        </mxCell>
        <mxCell id="hjiipsqCvdRGYFD8bcew-58" value="" style="endArrow=none;html=1;entryX=0.778;entryY=0.931;entryDx=0;entryDy=0;entryPerimeter=0;" edge="1" parent="1" target="hjiipsqCvdRGYFD8bcew-42">
          <mxGeometry width="50" height="50" relative="1" as="geometry">
            <mxPoint x="388" y="2210" as="sourcePoint" />
            <mxPoint x="439" y="2150" as="targetPoint" />
          </mxGeometry>
        </mxCell>
        <mxCell id="hjiipsqCvdRGYFD8bcew-59" value="" style="endArrow=none;html=1;entryX=0;entryY=0;entryDx=0;entryDy=0;" edge="1" parent="1" source="hjiipsqCvdRGYFD8bcew-38" target="hjiipsqCvdRGYFD8bcew-35">
          <mxGeometry width="50" height="50" relative="1" as="geometry">
            <mxPoint x="326" y="2223" as="sourcePoint" />
            <mxPoint x="364" y="2173" as="targetPoint" />
          </mxGeometry>
        </mxCell>
        <mxCell id="hjiipsqCvdRGYFD8bcew-60" value="" style="endArrow=none;html=1;exitX=1;exitY=0.5;exitDx=0;exitDy=0;" edge="1" parent="1" source="hjiipsqCvdRGYFD8bcew-39">
          <mxGeometry width="50" height="50" relative="1" as="geometry">
            <mxPoint x="293" y="2267" as="sourcePoint" />
            <mxPoint x="359" y="2250" as="targetPoint" />
          </mxGeometry>
        </mxCell>
        <mxCell id="hjiipsqCvdRGYFD8bcew-61" value="" style="endArrow=none;html=1;entryX=0;entryY=1;entryDx=0;entryDy=0;exitX=1.049;exitY=0.364;exitDx=0;exitDy=0;exitPerimeter=0;" edge="1" parent="1" source="hjiipsqCvdRGYFD8bcew-40" target="hjiipsqCvdRGYFD8bcew-35">
          <mxGeometry width="50" height="50" relative="1" as="geometry">
            <mxPoint x="297" y="2305" as="sourcePoint" />
            <mxPoint x="347" y="2255" as="targetPoint" />
          </mxGeometry>
        </mxCell>
        <mxCell id="hjiipsqCvdRGYFD8bcew-62" value="" style="endArrow=none;html=1;entryX=0.25;entryY=1;entryDx=0;entryDy=0;" edge="1" parent="1" source="hjiipsqCvdRGYFD8bcew-41" target="hjiipsqCvdRGYFD8bcew-35">
          <mxGeometry width="50" height="50" relative="1" as="geometry">
            <mxPoint x="398" y="2331" as="sourcePoint" />
            <mxPoint x="448" y="2281" as="targetPoint" />
          </mxGeometry>
        </mxCell>
        <mxCell id="hjiipsqCvdRGYFD8bcew-63" value="" style="endArrow=none;html=1;entryX=1;entryY=1;entryDx=0;entryDy=0;exitX=0;exitY=0;exitDx=0;exitDy=0;" edge="1" parent="1" source="hjiipsqCvdRGYFD8bcew-37" target="hjiipsqCvdRGYFD8bcew-48">
          <mxGeometry width="50" height="50" relative="1" as="geometry">
            <mxPoint x="649" y="2193" as="sourcePoint" />
            <mxPoint x="699" y="2143" as="targetPoint" />
          </mxGeometry>
        </mxCell>
        <mxCell id="hjiipsqCvdRGYFD8bcew-64" value="" style="endArrow=none;html=1;exitX=0.5;exitY=0;exitDx=0;exitDy=0;entryX=0.5;entryY=1;entryDx=0;entryDy=0;" edge="1" parent="1" source="hjiipsqCvdRGYFD8bcew-37" target="hjiipsqCvdRGYFD8bcew-43">
          <mxGeometry width="50" height="50" relative="1" as="geometry">
            <mxPoint x="691" y="2185" as="sourcePoint" />
            <mxPoint x="741" y="2135" as="targetPoint" />
          </mxGeometry>
        </mxCell>
        <mxCell id="hjiipsqCvdRGYFD8bcew-65" value="" style="endArrow=none;html=1;" edge="1" parent="1">
          <mxGeometry width="50" height="50" relative="1" as="geometry">
            <mxPoint x="591.5" y="2313" as="sourcePoint" />
            <mxPoint x="641.5" y="2263" as="targetPoint" />
          </mxGeometry>
        </mxCell>
        <mxCell id="hjiipsqCvdRGYFD8bcew-68" value="" style="endArrow=none;html=1;entryX=0.5;entryY=1;entryDx=0;entryDy=0;" edge="1" parent="1" target="hjiipsqCvdRGYFD8bcew-37">
          <mxGeometry width="50" height="50" relative="1" as="geometry">
            <mxPoint x="691" y="2338" as="sourcePoint" />
            <mxPoint x="744" y="2288" as="targetPoint" />
          </mxGeometry>
        </mxCell>
        <mxCell id="hjiipsqCvdRGYFD8bcew-69" value="" style="endArrow=none;html=1;" edge="1" parent="1" source="hjiipsqCvdRGYFD8bcew-37" target="hjiipsqCvdRGYFD8bcew-46">
          <mxGeometry width="50" height="50" relative="1" as="geometry">
            <mxPoint x="758" y="2318" as="sourcePoint" />
            <mxPoint x="808" y="2268" as="targetPoint" />
          </mxGeometry>
        </mxCell>
        <mxCell id="hjiipsqCvdRGYFD8bcew-70" value="" style="endArrow=none;html=1;entryX=0.379;entryY=1.078;entryDx=0;entryDy=0;entryPerimeter=0;exitX=0.6;exitY=0.017;exitDx=0;exitDy=0;exitPerimeter=0;" edge="1" parent="1" source="hjiipsqCvdRGYFD8bcew-36" target="hjiipsqCvdRGYFD8bcew-49">
          <mxGeometry width="50" height="50" relative="1" as="geometry">
            <mxPoint x="944" y="2221" as="sourcePoint" />
            <mxPoint x="994" y="2171" as="targetPoint" />
          </mxGeometry>
        </mxCell>
        <mxCell id="hjiipsqCvdRGYFD8bcew-71" value="" style="endArrow=none;html=1;entryX=0.061;entryY=0.789;entryDx=0;entryDy=0;entryPerimeter=0;exitX=1;exitY=0.25;exitDx=0;exitDy=0;" edge="1" parent="1" source="hjiipsqCvdRGYFD8bcew-36" target="hjiipsqCvdRGYFD8bcew-50">
          <mxGeometry width="50" height="50" relative="1" as="geometry">
            <mxPoint x="1027" y="2232" as="sourcePoint" />
            <mxPoint x="1086" y="2188" as="targetPoint" />
          </mxGeometry>
        </mxCell>
        <mxCell id="hjiipsqCvdRGYFD8bcew-72" value="" style="endArrow=none;html=1;exitX=1.017;exitY=0.65;exitDx=0;exitDy=0;exitPerimeter=0;" edge="1" parent="1" source="hjiipsqCvdRGYFD8bcew-36">
          <mxGeometry width="50" height="50" relative="1" as="geometry">
            <mxPoint x="1036" y="2300" as="sourcePoint" />
            <mxPoint x="1099" y="2300" as="targetPoint" />
          </mxGeometry>
        </mxCell>
        <mxCell id="hjiipsqCvdRGYFD8bcew-73" value="" style="endArrow=none;html=1;entryX=0.667;entryY=0.983;entryDx=0;entryDy=0;entryPerimeter=0;" edge="1" parent="1" source="hjiipsqCvdRGYFD8bcew-52" target="hjiipsqCvdRGYFD8bcew-36">
          <mxGeometry width="50" height="50" relative="1" as="geometry">
            <mxPoint x="979" y="2350" as="sourcePoint" />
            <mxPoint x="1029" y="2300" as="targetPoint" />
          </mxGeometry>
        </mxCell>
      </root>
    </mxGraphModel>
  </diagram>
</mxfile>
